<svg width="35" height="35" viewBox="0 0 35 35" fill="none" xmlns="http://www.w3.org/2000/svg">
<g clip-path="url(#clip0_66_308)">
<path d="M26.1632 26.1622C23.6703 28.0624 20.6348 29.1151 17.5007 29.1664C7.29232 29.1664 1.45898 17.4997 1.45898 17.4997C3.27299 14.1191 5.78897 11.1656 8.83815 8.83721M14.4381 6.18304C15.442 5.94808 16.4697 5.83062 17.5007 5.83304C27.709 5.83304 33.5423 17.4997 33.5423 17.4997C32.6571 19.1558 31.6014 20.7149 30.3923 22.1518M20.5923 20.5914C20.1918 21.0212 19.7088 21.366 19.1721 21.6051C18.6355 21.8442 18.0561 21.9728 17.4687 21.9832C16.8813 21.9935 16.2978 21.8855 15.753 21.6654C15.2082 21.4454 14.7134 21.1179 14.2979 20.7024C13.8825 20.287 13.555 19.7921 13.3349 19.2474C13.1149 18.7026 13.0068 18.1191 13.0172 17.5317C13.0276 16.9442 13.1561 16.3649 13.3953 15.8282C13.6344 15.2916 13.9791 14.8086 14.409 14.408" stroke="#727272" stroke-width="3" stroke-linecap="round" stroke-linejoin="round"/>
<path d="M1.45898 1.45801L33.5423 33.5413" stroke="#727272" stroke-width="3" stroke-linecap="round" stroke-linejoin="round"/>
</g>
<defs>
<clipPath id="clip0_66_308">
<rect width="35" height="35" fill="white"/>
</clipPath>
</defs>
</svg>
