<svg width="725" height="692" viewBox="0 0 725 692" fill="none" xmlns="http://www.w3.org/2000/svg">
<path d="M48.1174 551.734C51.077 551.736 53.9168 550.566 56.0167 548.48C58.1165 546.395 59.3058 543.563 59.3248 540.604C59.3362 539.134 59.0568 537.677 58.5027 536.316C57.9486 534.955 57.1308 533.717 56.0963 532.673C55.0617 531.63 53.8309 530.801 52.4747 530.235C51.1185 529.669 49.6638 529.377 48.1943 529.376C42.0612 529.376 37.0432 534.368 37.0074 540.527C37.0074 546.68 41.9793 551.693 48.1174 551.734ZM23.5393 540.481C23.5565 535.608 25.0183 530.85 27.7399 526.809C30.4616 522.767 34.3207 519.623 38.8292 517.775C43.3378 515.926 48.2932 515.457 53.0687 516.425C57.8442 517.393 62.2252 519.756 65.6578 523.214C69.0904 526.673 71.4203 531.071 72.3528 535.854C73.2853 540.636 72.7785 545.588 70.8966 550.083C69.0146 554.577 65.8421 558.413 61.7801 561.104C57.7181 563.795 52.9492 565.222 48.0766 565.202C44.8422 565.192 41.6417 564.544 38.6578 563.296C35.674 562.048 32.9654 560.224 30.6867 557.928C28.408 555.633 26.6039 552.911 25.3775 549.918C24.1511 546.926 23.5265 543.72 23.5393 540.486M170.359 541.642C171.824 541.649 173.275 541.367 174.631 540.812C175.987 540.257 177.219 539.44 178.259 538.408C179.299 537.376 180.124 536.149 180.689 534.798C181.254 533.446 181.547 531.997 181.551 530.532C181.562 527.571 180.399 524.727 178.316 522.622C176.233 520.518 173.402 519.325 170.441 519.304C164.303 519.304 159.229 524.302 159.229 530.476C159.224 533.432 160.395 536.269 162.482 538.363C164.569 540.457 167.402 541.637 170.359 541.642ZM145.76 530.394C145.785 523.865 148.4 517.614 153.032 513.012C157.664 508.411 163.933 505.838 170.461 505.857C173.698 505.864 176.902 506.509 179.89 507.756C182.877 509.002 185.589 510.825 187.871 513.121C190.154 515.417 191.961 518.139 193.19 521.134C194.419 524.129 195.046 527.336 195.034 530.573C195.026 533.808 194.379 537.009 193.132 539.994C191.884 542.979 190.061 545.688 187.765 547.967C185.469 550.246 182.747 552.05 179.753 553.276C176.759 554.502 173.553 555.125 170.318 555.11C167.082 555.103 163.879 554.457 160.893 553.211C157.907 551.964 155.196 550.14 152.915 547.845C150.635 545.549 148.829 542.826 147.602 539.831C146.376 536.837 145.746 533.63 145.76 530.394ZM221.868 428.572C228.007 428.572 233.019 423.595 233.06 417.441C233.056 414.482 231.881 411.644 229.792 409.548C227.703 407.452 224.869 406.268 221.909 406.255C215.771 406.255 210.758 411.206 210.758 417.38C210.748 418.846 211.028 420.299 211.582 421.656C212.136 423.013 212.952 424.247 213.985 425.288C215.018 426.328 216.246 427.154 217.599 427.717C218.952 428.281 220.403 428.571 221.868 428.572ZM197.254 417.344C197.265 414.107 197.914 410.904 199.163 407.918C200.412 404.931 202.237 402.221 204.535 399.94C206.832 397.659 209.556 395.854 212.551 394.626C215.546 393.399 218.754 392.774 221.991 392.786C225.223 392.797 228.421 393.445 231.402 394.692C234.383 395.939 237.09 397.761 239.367 400.055C241.644 402.348 243.446 405.068 244.671 408.058C245.897 411.048 246.521 414.251 246.508 417.482C246.508 431.068 235.418 442.061 221.812 442.035C218.578 442.029 215.376 441.385 212.391 440.141C209.405 438.896 206.695 437.075 204.414 434.782C202.133 432.488 200.326 429.768 199.098 426.776C197.869 423.784 197.243 420.579 197.254 417.344ZM348.928 419.14C350.395 419.152 351.849 418.873 353.207 418.32C354.565 417.767 355.8 416.951 356.84 415.918C357.881 414.885 358.707 413.656 359.27 412.302C359.833 410.948 360.122 409.496 360.12 408.03C360.129 405.823 359.484 403.663 358.265 401.823C357.046 399.983 355.309 398.546 353.274 397.693C351.238 396.841 348.995 396.611 346.829 397.034C344.663 397.456 342.671 398.511 341.105 400.066C339.539 401.621 338.469 403.605 338.03 405.768C337.592 407.931 337.805 410.176 338.643 412.217C339.48 414.259 340.905 416.007 342.735 417.239C344.566 418.471 346.722 419.133 348.928 419.14ZM324.35 407.932C324.356 404.695 324.999 401.49 326.243 398.502C327.488 395.513 329.309 392.799 331.603 390.514C333.897 388.23 336.619 386.42 339.613 385.188C342.606 383.956 345.814 383.326 349.051 383.334C355.504 383.485 361.64 386.16 366.143 390.784C370.645 395.409 373.155 401.615 373.134 408.069C373.112 414.523 370.561 420.712 366.028 425.307C361.495 429.901 355.341 432.535 348.888 432.644C335.322 432.587 324.274 421.518 324.35 407.932ZM399.599 306.07C405.737 306.11 410.75 301.108 410.791 294.939C410.795 293.474 410.51 292.022 409.953 290.667C409.396 289.311 408.578 288.079 407.544 287.04C405.457 284.941 402.622 283.758 399.663 283.75C396.703 283.742 393.862 284.909 391.764 286.996C389.665 289.083 388.482 291.918 388.474 294.878C388.465 296.344 388.747 297.798 389.303 299.155C389.858 300.512 390.676 301.746 391.71 302.786C392.744 303.826 393.973 304.652 395.327 305.215C396.681 305.779 398.133 306.069 399.599 306.07ZM375.026 294.816C374.991 291.554 375.604 288.318 376.83 285.295C378.056 282.272 379.871 279.523 382.169 277.208C384.467 274.892 387.202 273.057 390.216 271.807C393.229 270.558 396.461 269.92 399.723 269.931C402.985 269.941 406.213 270.6 409.218 271.868C412.223 273.137 414.947 274.99 417.229 277.321C419.512 279.651 421.309 282.411 422.516 285.442C423.723 288.473 424.315 291.713 424.259 294.975C424.255 298.211 423.613 301.415 422.369 304.403C421.125 307.391 419.304 310.104 417.01 312.387C414.716 314.67 411.994 316.478 409 317.708C406.007 318.938 402.8 319.565 399.563 319.553C396.325 319.548 393.121 318.904 390.133 317.657C387.145 316.409 384.433 314.584 382.152 312.285C379.872 309.987 378.069 307.26 376.846 304.262C375.623 301.264 375.004 298.054 375.026 294.816ZM527.099 294.98C528.567 294.983 530.021 294.696 531.377 294.135C532.734 293.575 533.966 292.752 535.004 291.714C536.042 290.676 536.865 289.443 537.426 288.087C537.986 286.73 538.273 285.276 538.27 283.809C538.274 280.852 537.104 278.015 535.017 275.921C532.93 273.827 530.096 272.648 527.14 272.642C524.176 272.63 521.329 273.795 519.223 275.881C517.118 277.967 515.927 280.804 515.912 283.768C515.909 286.738 517.086 289.587 519.184 291.69C521.282 293.793 524.129 294.976 527.099 294.98ZM502.485 283.711C502.485 270.105 513.574 259.133 527.222 259.154C533.749 259.19 539.995 261.812 544.593 266.444C549.191 271.077 551.766 277.343 551.754 283.87C551.73 290.408 549.111 296.668 544.474 301.277C539.837 305.885 533.56 308.464 527.022 308.448C523.787 308.435 520.585 307.785 517.601 306.535C514.617 305.285 511.908 303.459 509.63 301.162C507.351 298.865 505.547 296.142 504.321 293.148C503.095 290.153 502.471 286.947 502.485 283.711ZM577.411 186.82C578.876 186.824 580.327 186.54 581.681 185.983C583.036 185.427 584.267 184.609 585.305 183.576C586.344 182.543 587.168 181.316 587.733 179.965C588.297 178.614 588.589 177.164 588.593 175.7C588.597 174.236 588.313 172.785 587.756 171.431C587.199 170.076 586.381 168.844 585.349 167.806C584.316 166.768 583.089 165.943 581.738 165.379C580.386 164.815 578.937 164.522 577.473 164.518C571.335 164.518 566.281 169.48 566.281 175.654C566.281 181.808 571.243 186.82 577.411 186.82ZM552.797 175.593C552.83 169.063 555.45 162.812 560.082 158.209C564.715 153.607 570.983 151.029 577.514 151.04C584.046 151.062 590.303 153.677 594.907 158.311C599.511 162.945 602.087 169.219 602.066 175.751C602.066 189.337 590.977 200.329 577.37 200.289C570.84 200.261 564.587 197.647 559.981 193.018C555.375 188.389 552.792 182.123 552.797 175.593Z" fill="#008A3D"/>
<path d="M354.484 283.787C322.294 290.979 295.819 326.749 295.819 326.749C266.969 368.566 273.839 399.998 273.839 399.998L354.264 284.309L354.484 283.787ZM363.517 291.082L282.652 406.474C282.652 406.474 314.484 402.075 343.834 360.54C343.834 360.54 368.269 323.368 363.937 290.718L363.517 291.082ZM259.895 427.533C259.895 427.533 240.473 298.852 372.786 263.849C372.786 263.849 405.518 387.891 259.895 427.533Z" fill="#008A3D"/>
<path d="M522.404 319.712C493.708 303.568 450.112 312.463 450.112 312.463C400.659 324.228 384.792 352.182 384.792 352.182L521.944 319.972L522.404 319.712ZM524.282 331.185L386.991 362.914C386.991 362.914 413.631 380.955 463.202 369.666C463.202 369.666 506.241 358.361 524.803 331.2L524.282 331.185ZM355.963 363.374C355.963 363.374 427.616 254.698 549.382 317.133C549.382 317.133 490.798 431.268 355.963 363.374ZM177.716 406.311C145.582 413.487 119.147 449.252 119.147 449.252C90.1958 491.074 97.0909 522.522 97.0909 522.522L177.511 406.812L177.716 406.311ZM186.805 413.585L105.899 528.956C105.899 528.956 137.792 524.598 167.081 483.038C167.081 483.038 191.521 445.851 187.184 413.247L186.805 413.585ZM83.142 550.077C83.142 550.077 63.7607 421.38 196.033 386.372C196.033 386.372 228.785 510.414 83.142 550.077Z" fill="#008A3D"/>
<path d="M343.517 443.319C314.821 427.155 271.204 436.045 271.204 436.045C221.771 447.836 205.884 475.79 205.884 475.79L343.015 443.559L343.517 443.319ZM345.373 454.808L208.124 486.475C208.124 486.475 234.697 504.537 284.273 493.268C284.273 493.268 327.332 481.938 345.931 454.802L345.373 454.808ZM177.055 486.936C177.055 486.936 248.682 378.3 370.427 440.72C370.427 440.72 311.885 554.849 177.055 486.936ZM533.355 160.206C501.262 167.378 474.771 203.122 474.771 203.122C445.855 244.964 452.71 276.376 452.71 276.376L533.212 160.708L533.355 160.206ZM542.465 167.48L461.564 282.867C461.564 282.867 493.452 278.514 522.725 236.954C522.725 236.954 547.201 199.746 542.864 167.137L542.465 167.48ZM438.801 303.967C438.801 303.967 419.42 175.25 551.692 140.247C551.692 140.247 584.429 264.31 438.801 303.967Z" fill="#008A3D"/>
<path d="M698.058 201.588C669.387 185.424 625.786 194.294 625.786 194.294C576.312 206.105 560.389 234.038 560.389 234.038L697.577 201.828L698.058 201.588ZM699.914 213.056L562.665 244.77C562.665 244.77 589.264 262.811 638.829 251.501C638.829 251.501 681.832 240.212 700.477 213.056H699.914ZM531.616 245.205C531.616 245.205 603.248 136.569 724.968 198.949C724.968 198.949 666.41 313.103 531.616 245.205ZM166.042 566.681C137.214 550.834 93.6939 560.108 93.6939 560.108C44.3379 572.333 28.6754 600.446 28.6754 600.446L165.567 566.962L166.042 566.681ZM167.961 578.169L31.0283 611.162C31.0283 611.162 57.8061 628.963 107.28 617.213C107.28 617.213 150.237 605.5 168.58 578.149L167.961 578.169ZM0 611.899C0 611.899 70.5939 502.583 192.979 563.842C192.979 563.842 135.433 678.534 0 611.899ZM39.9032 502.859C39.9032 502.859 59.443 502.941 72.4508 513.872C72.4508 513.872 63.4225 462.798 126.722 404.193C122.861 389.641 120.438 374.744 119.49 359.717H2.30172C4.34877 409.587 17.1769 458.422 39.9032 502.859Z" fill="#008A3D"/>
<path d="M196.994 553.974C204.048 556.711 206.201 561.627 206.201 561.627C187.623 604.047 144.124 624.942 144.124 624.942C201.924 667.191 271.462 690.361 343.052 691.224L343.359 574.19C293.348 573.173 245.052 555.773 205.884 524.66C213.455 539.345 196.994 553.974 196.994 553.974ZM343.354 117.106V0H0V117.065H89.7757C38.9824 167.521 6.25581 245.644 2.35807 328.228H119.229C128.779 210.478 227.705 117.485 343.354 117.106ZM375.666 0H724.973V117.065H645.827V168.181C638.436 166.262 616.236 172.513 616.236 172.513C599.99 121.822 564.026 142.963 564.026 142.963C563.524 139.147 560.251 129.336 560.251 129.336C551.575 127.137 528.68 135.792 528.68 135.792L528.721 117.827V117.065H375.727L375.666 0ZM645.827 447.815V276.038C616.195 288.407 562.026 275.256 562.026 275.256C568.461 303.051 553.775 311.164 553.775 311.164C557.529 313.364 562.409 318.796 562.409 318.796C554.737 344.392 527.984 362.812 527.984 362.812L527.8 418.321C518.787 567.018 393.63 573.77 375.927 573.975V691.224C375.927 691.224 499.805 688.462 586.108 593.816C586.108 593.816 635.162 653.177 724.973 678.272V544.639C724.973 544.639 647.044 518.573 645.827 447.815Z" fill="#008A3D"/>
</svg>
